<svg xmlns="http://www.w3.org/2000/svg" viewBox="0 0 900 600" role="img" aria-label="Bonito">
      <defs>
        <linearGradient id="g" x1="0" x2="1" y1="0" y2="1">
          <stop offset="0" stop-color="#cffafe"/>
          <stop offset="1" stop-color="#0891b2"/>
        </linearGradient>
        <filter id="shadow" x="-20%" y="-20%" width="140%" height="140%">
          <feDropShadow dx="0" dy="10" stdDeviation="12" flood-color="#111827" flood-opacity="0.22"/>
        </filter>
      </defs>
      <rect width="900" height="600" fill="url(#g)"/>
      <circle cx="130" cy="95" r="95" fill="white" opacity="0.12"/>
      <circle cx="795" cy="145" r="150" fill="white" opacity="0.08"/>
      <circle cx="760" cy="95" r="48" fill="#fde68a" opacity="0.95"/>
        <path d="M0 390 C210 330 350 425 510 365 C650 315 760 330 900 275 L900 600 L0 600 Z" fill="#22c55e" opacity="0.75"/>
        <path d="M310 600 C300 505 410 475 435 415 C470 335 365 305 425 240" stroke="#06b6d4" stroke-width="78" fill="none" opacity="0.9"/>
        <path d="M310 600 C300 505 410 475 435 415 C470 335 365 305 425 240" stroke="white" stroke-width="8" fill="none" opacity="0.55"/>
        
      <rect x="48" y="390" width="520" height="136" rx="24" fill="#111827" opacity="0.42" filter="url(#shadow)"/>
      <text x="82" y="450" font-family="Arial, Helvetica, sans-serif" font-size="48" font-weight="800" fill="white">Bonito</text>
      <text x="84" y="492" font-family="Arial, Helvetica, sans-serif" font-size="26" font-weight="700" fill="#e0e7ff">Brasil • MS</text>
    </svg>