<svg xmlns="http://www.w3.org/2000/svg" viewBox="0 0 900 600" role="img" aria-label="Florianópolis">
      <defs>
        <linearGradient id="g" x1="0" x2="1" y1="0" y2="1">
          <stop offset="0" stop-color="#a7f3d0"/>
          <stop offset="1" stop-color="#0ea5e9"/>
        </linearGradient>
        <filter id="shadow" x="-20%" y="-20%" width="140%" height="140%">
          <feDropShadow dx="0" dy="10" stdDeviation="12" flood-color="#111827" flood-opacity="0.22"/>
        </filter>
      </defs>
      <rect width="900" height="600" fill="url(#g)"/>
      <circle cx="130" cy="95" r="95" fill="white" opacity="0.12"/>
      <circle cx="795" cy="145" r="150" fill="white" opacity="0.08"/>
      <circle cx="760" cy="95" r="48" fill="#fde68a" opacity="0.95"/>
        <path d="M0 395 C180 345 350 375 510 350 C680 322 770 360 900 330 L900 600 L0 600 Z" fill="#06b6d4" opacity="0.85"/>
        <ellipse cx="455" cy="390" rx="185" ry="44" fill="#facc15" opacity="0.9"/>
        <path d="M420 384 C450 250 520 235 570 360" stroke="#166534" stroke-width="18" fill="none"/>
        <path d="M468 300 C510 270 550 280 585 320" stroke="#166534" stroke-width="13" fill="none"/>
        
      <rect x="48" y="390" width="520" height="136" rx="24" fill="#111827" opacity="0.42" filter="url(#shadow)"/>
      <text x="82" y="450" font-family="Arial, Helvetica, sans-serif" font-size="48" font-weight="800" fill="white">Florianópolis</text>
      <text x="84" y="492" font-family="Arial, Helvetica, sans-serif" font-size="26" font-weight="700" fill="#e0e7ff">Brasil • SC</text>
    </svg>