<svg xmlns="http://www.w3.org/2000/svg" viewBox="0 0 900 600" role="img" aria-label="Foz do Iguaçu">
      <defs>
        <linearGradient id="g" x1="0" x2="1" y1="0" y2="1">
          <stop offset="0" stop-color="#dbeafe"/>
          <stop offset="1" stop-color="#1d4ed8"/>
        </linearGradient>
        <filter id="shadow" x="-20%" y="-20%" width="140%" height="140%">
          <feDropShadow dx="0" dy="10" stdDeviation="12" flood-color="#111827" flood-opacity="0.22"/>
        </filter>
      </defs>
      <rect width="900" height="600" fill="url(#g)"/>
      <circle cx="130" cy="95" r="95" fill="white" opacity="0.12"/>
      <circle cx="795" cy="145" r="150" fill="white" opacity="0.08"/>
      <circle cx="760" cy="95" r="48" fill="#fde68a" opacity="0.95"/>
        <rect x="0" y="260" width="900" height="340" fill="#166534" opacity="0.75"/>
        <path d="M0 330 C220 250 330 390 520 315 C675 252 760 300 900 245 L900 600 L0 600 Z" fill="#22c55e" opacity="0.85"/>
        <path d="M440 220 L570 220 L540 600 L365 600 Z" fill="#dbeafe" opacity="0.95"/>
        <path d="M470 230 L535 230 L500 600 L430 600 Z" fill="#38bdf8" opacity="0.75"/>
        
      <rect x="48" y="390" width="520" height="136" rx="24" fill="#111827" opacity="0.42" filter="url(#shadow)"/>
      <text x="82" y="450" font-family="Arial, Helvetica, sans-serif" font-size="48" font-weight="800" fill="white">Foz do Iguaçu</text>
      <text x="84" y="492" font-family="Arial, Helvetica, sans-serif" font-size="26" font-weight="700" fill="#e0e7ff">Brasil • PR</text>
    </svg>