<svg xmlns="http://www.w3.org/2000/svg" viewBox="0 0 900 600" role="img" aria-label="Gramado">
      <defs>
        <linearGradient id="g" x1="0" x2="1" y1="0" y2="1">
          <stop offset="0" stop-color="#d9f99d"/>
          <stop offset="1" stop-color="#166534"/>
        </linearGradient>
        <filter id="shadow" x="-20%" y="-20%" width="140%" height="140%">
          <feDropShadow dx="0" dy="10" stdDeviation="12" flood-color="#111827" flood-opacity="0.22"/>
        </filter>
      </defs>
      <rect width="900" height="600" fill="url(#g)"/>
      <circle cx="130" cy="95" r="95" fill="white" opacity="0.12"/>
      <circle cx="795" cy="145" r="150" fill="white" opacity="0.08"/>
      <circle cx="760" cy="95" r="48" fill="#fde68a" opacity="0.95"/>
        <path d="M0 405 C230 350 430 440 900 360 L900 600 L0 600 Z" fill="#86efac"/>
        <rect x="225" y="300" width="120" height="95" fill="#fef3c7"/><path d="M205 300 L285 230 L365 300 Z" fill="#b91c1c"/>
        <rect x="410" y="275" width="150" height="120" fill="#fff7ed"/><path d="M388 275 L485 200 L582 275 Z" fill="#7f1d1d"/>
        <rect x="620" y="315" width="95" height="80" fill="#fef3c7"/><path d="M605 315 L668 255 L730 315 Z" fill="#991b1b"/>
        
      <rect x="48" y="390" width="520" height="136" rx="24" fill="#111827" opacity="0.42" filter="url(#shadow)"/>
      <text x="82" y="450" font-family="Arial, Helvetica, sans-serif" font-size="48" font-weight="800" fill="white">Gramado</text>
      <text x="84" y="492" font-family="Arial, Helvetica, sans-serif" font-size="26" font-weight="700" fill="#e0e7ff">Brasil • RS</text>
    </svg>