<svg xmlns="http://www.w3.org/2000/svg" viewBox="0 0 900 600" role="img" aria-label="Lençóis Maranhenses">
      <defs>
        <linearGradient id="g" x1="0" x2="1" y1="0" y2="1">
          <stop offset="0" stop-color="#fef3c7"/>
          <stop offset="1" stop-color="#0ea5e9"/>
        </linearGradient>
        <filter id="shadow" x="-20%" y="-20%" width="140%" height="140%">
          <feDropShadow dx="0" dy="10" stdDeviation="12" flood-color="#111827" flood-opacity="0.22"/>
        </filter>
      </defs>
      <rect width="900" height="600" fill="url(#g)"/>
      <circle cx="130" cy="95" r="95" fill="white" opacity="0.12"/>
      <circle cx="795" cy="145" r="150" fill="white" opacity="0.08"/>
      <circle cx="760" cy="95" r="48" fill="#fde68a" opacity="0.95"/>
        <path d="M0 360 C200 280 315 420 490 340 C650 270 785 335 900 280 L900 600 L0 600 Z" fill="#fef3c7"/>
        <path d="M0 465 C225 370 350 530 565 440 C725 375 795 420 900 390 L900 600 L0 600 Z" fill="#fde68a"/>
        <ellipse cx="610" cy="410" rx="120" ry="30" fill="#0ea5e9" opacity="0.8"/>
        <ellipse cx="278" cy="500" rx="150" ry="38" fill="#38bdf8" opacity="0.8"/>
        
      <rect x="48" y="390" width="520" height="136" rx="24" fill="#111827" opacity="0.42" filter="url(#shadow)"/>
      <text x="82" y="450" font-family="Arial, Helvetica, sans-serif" font-size="48" font-weight="800" fill="white">Lençóis Maranhenses</text>
      <text x="84" y="492" font-family="Arial, Helvetica, sans-serif" font-size="26" font-weight="700" fill="#e0e7ff">Brasil • MA</text>
    </svg>