<svg xmlns="http://www.w3.org/2000/svg" viewBox="0 0 900 600" role="img" aria-label="Manaus">
      <defs>
        <linearGradient id="g" x1="0" x2="1" y1="0" y2="1">
          <stop offset="0" stop-color="#bbf7d0"/>
          <stop offset="1" stop-color="#15803d"/>
        </linearGradient>
        <filter id="shadow" x="-20%" y="-20%" width="140%" height="140%">
          <feDropShadow dx="0" dy="10" stdDeviation="12" flood-color="#111827" flood-opacity="0.22"/>
        </filter>
      </defs>
      <rect width="900" height="600" fill="url(#g)"/>
      <circle cx="130" cy="95" r="95" fill="white" opacity="0.12"/>
      <circle cx="795" cy="145" r="150" fill="white" opacity="0.08"/>
      <circle cx="760" cy="95" r="48" fill="#fde68a" opacity="0.95"/>
        <rect x="0" y="350" width="900" height="250" fill="#14532d" opacity="0.83"/>
        <path d="M0 400 C170 330 300 420 450 350 C590 285 750 390 900 315 L900 600 L0 600 Z" fill="#22c55e" opacity="0.66"/>
        <rect x="90" y="250" width="22" height="190" fill="#78350f"/><circle cx="101" cy="245" r="58" fill="#166534"/><rect x="190" y="250" width="22" height="190" fill="#78350f"/><circle cx="201" cy="245" r="58" fill="#166534"/><rect x="300" y="250" width="22" height="190" fill="#78350f"/><circle cx="311" cy="245" r="58" fill="#166534"/><rect x="430" y="250" width="22" height="190" fill="#78350f"/><circle cx="441" cy="245" r="58" fill="#166534"/><rect x="560" y="250" width="22" height="190" fill="#78350f"/><circle cx="571" cy="245" r="58" fill="#166534"/><rect x="705" y="250" width="22" height="190" fill="#78350f"/><circle cx="716" cy="245" r="58" fill="#166534"/><rect x="805" y="250" width="22" height="190" fill="#78350f"/><circle cx="816" cy="245" r="58" fill="#166534"/>
      <rect x="48" y="390" width="520" height="136" rx="24" fill="#111827" opacity="0.42" filter="url(#shadow)"/>
      <text x="82" y="450" font-family="Arial, Helvetica, sans-serif" font-size="48" font-weight="800" fill="white">Manaus</text>
      <text x="84" y="492" font-family="Arial, Helvetica, sans-serif" font-size="26" font-weight="700" fill="#e0e7ff">Brasil • AM</text>
    </svg>