<svg xmlns="http://www.w3.org/2000/svg" viewBox="0 0 900 600" role="img" aria-label="São Paulo">
      <defs>
        <linearGradient id="g" x1="0" x2="1" y1="0" y2="1">
          <stop offset="0" stop-color="#e5e7eb"/>
          <stop offset="1" stop-color="#374151"/>
        </linearGradient>
        <filter id="shadow" x="-20%" y="-20%" width="140%" height="140%">
          <feDropShadow dx="0" dy="10" stdDeviation="12" flood-color="#111827" flood-opacity="0.22"/>
        </filter>
      </defs>
      <rect width="900" height="600" fill="url(#g)"/>
      <circle cx="130" cy="95" r="95" fill="white" opacity="0.12"/>
      <circle cx="795" cy="145" r="150" fill="white" opacity="0.08"/>
      <circle cx="760" cy="95" r="48" fill="#fde68a" opacity="0.95"/>
        <rect x="0" y="410" width="900" height="190" fill="#111827" opacity="0.85"/>
        <rect x="80" y="230" width="90" height="180" fill="#374151"/><rect x="98" y="260" width="12" height="18" fill="#fde68a"/><rect x="132" y="310" width="12" height="18" fill="#fde68a"/><rect x="200" y="170" width="120" height="240" fill="#374151"/><rect x="218" y="200" width="12" height="18" fill="#fde68a"/><rect x="252" y="250" width="12" height="18" fill="#fde68a"/><rect x="355" y="260" width="80" height="150" fill="#374151"/><rect x="373" y="290" width="12" height="18" fill="#fde68a"/><rect x="407" y="340" width="12" height="18" fill="#fde68a"/><rect x="480" y="130" width="135" height="280" fill="#374151"/><rect x="498" y="160" width="12" height="18" fill="#fde68a"/><rect x="532" y="210" width="12" height="18" fill="#fde68a"/><rect x="655" y="215" width="100" height="195" fill="#374151"/><rect x="673" y="245" width="12" height="18" fill="#fde68a"/><rect x="707" y="295" width="12" height="18" fill="#fde68a"/><rect x="780" y="285" width="75" height="125" fill="#374151"/><rect x="798" y="315" width="12" height="18" fill="#fde68a"/><rect x="832" y="365" width="12" height="18" fill="#fde68a"/>
      <rect x="48" y="390" width="520" height="136" rx="24" fill="#111827" opacity="0.42" filter="url(#shadow)"/>
      <text x="82" y="450" font-family="Arial, Helvetica, sans-serif" font-size="48" font-weight="800" fill="white">São Paulo</text>
      <text x="84" y="492" font-family="Arial, Helvetica, sans-serif" font-size="26" font-weight="700" fill="#e0e7ff">Brasil • SP</text>
    </svg>